<svg width="382" height="438" viewBox="0 0 382 438" fill="none" xmlns="http://www.w3.org/2000/svg">
    <path d="M190.56 0.173584L0.00927734 110.188L71.0692 151.214L261.62 41.2L190.56 0.173584Z" fill="url(#paint0_radial_1913_795)"/>
    <path d="M166.344 313.445L142.526 327.196V272.189L190.163 299.693L166.344 313.445Z" fill="#3071B9"/>
    <path d="M381.11 110.188L261.62 41.2001V149.819V258.437L381.11 327.425V110.188Z" fill="url(#paint1_linear_1913_795)"/>
    <path d="M71.0692 368.452L190.56 437.44L192.555 436.288L216.125 422.68L239.694 409.072L286.833 381.857L333.972 354.641L357.541 341.033L381.11 327.425L261.62 258.438L190.163 299.693L166.344 313.445L142.526 327.197L71.0692 368.452Z" fill="url(#paint2_radial_1913_795)"/>
    <path d="M166.344 313.445L142.526 327.196L216.125 422.68L239.694 409.072L286.833 381.857L333.972 354.641L357.541 341.033L190.163 299.693L166.344 313.445Z" fill="url(#paint3_linear_1913_795)"/>
    <path d="M190.163 299.693V204.826L166.344 218.578L142.526 232.33V259.833V272.189L190.163 299.693Z" fill="#363F53"/>
    <path d="M261.62 41.2001L71.0692 151.214V259.833V368.452L142.526 327.196V272.189V259.833V232.33L166.344 218.578L190.163 204.826V299.693L261.62 258.437V149.819V41.2001Z" fill="#E4E2DD"/>
    <path d="M0.00927734 110.188V327.425L71.0692 368.452V259.833V151.214L0.00927734 110.188Z" fill="url(#paint4_radial_1913_795)"/>
    <defs>
        <radialGradient id="paint0_radial_1913_795" cx="0" cy="0" r="1" gradientUnits="userSpaceOnUse" gradientTransform="translate(32.0082 109.941) rotate(-16.8656) scale(205.599 356.109)">
            <stop stop-color="#485A92"/>
            <stop offset="1" stop-color="#22273A"/>
        </radialGradient>
        <linearGradient id="paint1_linear_1913_795" x1="321.365" y1="90.8924" x2="321.365" y2="278.327" gradientUnits="userSpaceOnUse">
            <stop stop-color="#181F34"/>
            <stop offset="1" stop-color="#1F3D76"/>
        </linearGradient>
        <radialGradient id="paint2_radial_1913_795" cx="0" cy="0" r="1" gradientUnits="userSpaceOnUse" gradientTransform="translate(177.155 311.699) scale(284.081 492.043)">
            <stop stop-color="#2E6BB4"/>
            <stop offset="1" stop-color="#181F34"/>
        </radialGradient>
        <linearGradient id="paint3_linear_1913_795" x1="168.042" y1="299.693" x2="268.969" y2="361.186" gradientUnits="userSpaceOnUse">
            <stop stop-color="#3072BB"/>
            <stop offset="1" stop-color="#203B7E"/>
        </linearGradient>
        <radialGradient id="paint4_radial_1913_795" cx="0" cy="0" r="1" gradientUnits="userSpaceOnUse" gradientTransform="translate(19.544 151.785) rotate(49.3022) scale(344.067 94.6682)">
            <stop stop-color="#485A92"/>
            <stop offset="1" stop-color="#171D31"/>
        </radialGradient>
    </defs>
</svg>
